<svg xmlns="http://www.w3.org/2000/svg" width="140" height="30" viewBox="0 0 140 30"><g fill-rule="evenodd" clip-rule="evenodd"><path d="M63.163 8.846l.904.113c1.016.112 1.995.375 2.86 1.015 1.017.753 1.582 1.807 1.883 3.01.15.716.226 1.432.226 2.184v7.189H65.95v-.265-6.7c0-.527-.076-1.055-.19-1.58-.262-1.206-1.015-1.92-2.257-2.185-1.167-.188-2.333-.113-3.425.452-.414.188-.753.527-1.092.828-.15.075-.188.226-.188.376v9.072h-3.125v-.264-7.34c0-.49-.075-.98-.226-1.468-.263-.79-.79-1.317-1.618-1.543-1.62-.452-3.163-.226-4.556.753l-.038.038c-.49.376-.715.79-.715 1.43.04 2.71.04 5.42.04 8.13v.265h-3.125V9.146h2.785c.038.64.113 1.242.188 1.844 0 .04.038.04.075.077 0-.038.038-.113.075-.15.94-1.092 2.146-1.695 3.54-1.92.337-.076.64-.076.978-.114.038 0 .075 0 .113-.037h.338c.038.037.113.037.15.037.414.076.83.076 1.243.188 1.28.34 2.297 1.017 2.937 2.184 0 .038.037.038.037.038h.038c0-.038.038-.075.038-.075 1.092-1.205 2.37-1.995 3.99-2.258.3-.04.603-.077.903-.114h.3zM78.635 8.846c.338.037.64.075.94.113.903.074 1.807.262 2.635.676 1.506.753 2.372 1.995 2.598 3.614.075.753.075 1.468.075 2.22.038 1.883.038 3.764.038 5.647.037.414.113.828.15 1.242h-2.372c-.15 0-.225-.038-.225-.19-.075-.452-.188-.903-.264-1.354-.038 0-.076.037-.114.074-1.016.98-2.22 1.47-3.575 1.658-1.393.188-2.747.148-4.102-.266-.904-.3-1.694-.752-2.334-1.506-.603-.752-.79-1.654-.753-2.635.038-.9.3-1.767.904-2.445.603-.678 1.393-1.054 2.26-1.28 1.24-.34 2.482-.376 3.763-.264 1.317.114 2.597.415 3.802.942h.074c.188-1.543-.113-2.936-1.807-3.5-.83-.3-1.73-.34-2.598-.34-1.093.04-2.184.227-3.163.68-.414.187-.79.45-1.204.676-.3-.752-.603-1.506-.94-2.333.075-.038.112-.076.187-.113 1.694-.866 3.463-1.243 5.346-1.28.075 0 .15 0 .188-.037h.49zm-.79 7.377h-.565c-.64.04-1.28.076-1.883.303-.678.262-1.09.715-1.167 1.467-.075.828.19 1.47.94 1.883.227.113.49.227.79.3 1.28.265 2.562.228 3.84-.073.792-.19 1.544-.527 2.147-1.055.15-.113.227-.264.227-.45-.038-.49-.038-.942-.038-1.433.038-.15-.038-.188-.15-.264-1.357-.45-2.75-.714-4.142-.677zM36.136 8.846c.3.037.603.075.98.113 1.128.112 2.182.413 3.16 1.053 1.43.94 2.26 2.296 2.636 3.953.188.753.226 1.506.226 2.257v.19h-11.67c0 .526.15 1.015.302 1.505.452 1.016 1.13 1.693 2.183 1.994 1.882.604 3.764.49 5.57-.377.527-.262.98-.64 1.394-1.13.49.718.98 1.394 1.506 2.11-.113.074-.226.188-.3.262-1.28.98-2.75 1.506-4.33 1.732-1.43.226-2.86.187-4.29-.15-1.432-.378-2.71-1.093-3.615-2.298-.753-.98-1.13-2.07-1.205-3.313v-.263-.98c0-.226 0-.452.075-.715.226-1.62.904-3.05 2.108-4.14 1.205-1.018 2.56-1.544 4.065-1.695.302-.038.528-.076.83-.113.15.002.226.002.376.002zM31.62 14.34H40.2c-.038-.15-.075-.262-.075-.375-.376-1.43-1.205-2.334-2.56-2.71-.903-.264-1.807-.264-2.71-.113-1.58.263-2.635 1.167-3.162 2.748-.076.113-.076.263-.076.45zM117.255 28.08c-.603-.188-1.167-.414-1.77-.602-.376-.113-.753-.227-1.13-.338.264-.377.528-.754.754-1.13.75-1.13 1.43-2.333 1.993-3.575.076-.113.076-.19.038-.34-1.956-4.215-3.95-8.47-5.908-12.685-.038-.076-.076-.15-.113-.264H114.242c.15 0 .19.038.264.188 1.43 3.426 2.823 6.888 4.254 10.313.038.076.038.15.113.264.038-.112.075-.187.075-.224 1.47-3.465 2.9-6.927 4.33-10.353.074-.15.15-.188.3-.188h3.05c-.112.264-.226.49-.34.715-1.806 4.103-3.688 8.206-5.72 12.196-1.018 2.03-2.07 4.064-3.275 6.02h-.038zM140 18.707c-.074.227-.112.416-.15.64-.34 1.282-1.166 2.108-2.333 2.6-1.018.45-2.07.603-3.124.638-1.77.113-3.502-.074-5.158-.64-.64-.226-1.242-.526-1.882-.827-.075 0-.113-.037-.188-.113l1.016-2.484c0 .04.038 0 .038.04.98.826 2.146 1.316 3.388 1.543 1.393.264 2.786.264 4.178-.076.452-.074.866-.264 1.205-.602.414-.453.49-.94.377-1.506-.076-.34-.265-.565-.565-.716-.45-.227-.98-.303-1.468-.377-1.317-.15-2.635-.264-3.952-.45-.716-.077-1.43-.265-2.146-.604-1.055-.526-1.506-1.43-1.506-2.597.038-1.845 1.167-3.2 2.974-3.84.828-.3 1.73-.414 2.597-.452.076 0 .15 0 .188-.037h.49c.074.037.15.037.225.037 1.432.038 2.786.226 4.14.678.38.113.754.264 1.13.414-.3.828-.602 1.58-.902 2.333-.377-.19-.716-.377-1.092-.528-1.317-.49-2.71-.602-4.103-.564-.602 0-1.242.075-1.807.3-.376.15-.678.34-.94.64-.527.753-.302 1.544.602 1.845.302.075.64.15.98.188 1.24.19 2.52.302 3.8.453.79.113 1.582.3 2.334.677.79.414 1.354 1.055 1.543 1.92.038.15.075.264.112.414-.002.338-.002.715-.002 1.053zM104.23 8.846c.15.037.34.037.527.037 1.58.076 3.124.34 4.63.98.075.036.15.112.264.15-.3.752-.602 1.542-.865 2.295h-.075c-.94-.602-2.032-.866-3.125-1.016-.94-.113-1.92-.15-2.86 0-.602.076-1.166.226-1.655.64-.378.3-.527.752-.49 1.242.038.3.188.527.452.64.414.263.865.338 1.354.376 1.28.188 2.522.3 3.802.452.79.113 1.544.3 2.26.64 1.24.603 1.77 1.657 1.73 3.012 0 .98-.3 1.88-.978 2.635-.603.638-1.354 1.015-2.146 1.278-1.166.34-2.37.414-3.538.414-1.355-.04-2.71-.188-3.99-.64-.64-.226-1.28-.565-1.92-.83-.075-.036-.15-.073-.226-.15.338-.827.64-1.655.98-2.444.45.262.827.564 1.28.79 1.316.714 2.746.94 4.252.94.716 0 1.432-.037 2.108-.264.34-.113.715-.264 1.017-.49.526-.375.678-.977.564-1.617-.112-.377-.338-.602-.677-.754-.564-.264-1.167-.3-1.77-.377-1.43-.11-2.897-.188-4.33-.564-.525-.11-1.053-.3-1.504-.564-.942-.45-1.356-1.242-1.356-2.258-.037-1.807.866-3.163 2.56-3.915.94-.414 1.958-.565 3.012-.603.075 0 .15 0 .226-.037h.488zM96.024 12.233c-1.054-.527-2.146-.64-3.2-.075-.752.376-1.28 1.054-1.618 1.807-.15.3-.226.64-.226.98.037 2.372.037 4.78.037 7.15v.265h-3.01V9.148h2.823c.036.94.074 1.882.15 2.86h.036l.113-.338c.187-.527.45-1.054.828-1.468.828-.94 1.92-1.28 3.124-1.167.45.038.865.188 1.317.263.11.038.15.113.11.264-.15.828-.3 1.694-.45 2.522.003.037-.036.112-.036.15z" fill="#FFF"/><path d="M.076 13.55H0V8.997c.226-.075.376-.15.527-.226 2.108-.94 4.216-1.882 6.324-2.86 2.41-1.054 4.744-2.108 7.152-3.162 1.808-.83 3.614-1.656 5.496-2.485.15-.075.377-.113.528-.263h.075v4.33c0 .15 0 .187-.15.263-4.893 2.183-9.786 4.367-14.68 6.587-.074 0-.15.038-.225.075-.602.264-1.204.565-1.807.828-.678.3-1.43.64-2.183.98-.302.15-.68.262-.98.488z" fill="#32D17E"/><path d="M5.12 30c-.076-.34 0-.678 0-1.018v-3.313c0-.15.075-.227.15-.264 3.237-1.43 6.4-2.823 9.56-4.216 1.732-.754 3.39-1.506 5.12-2.26 0-.037.076-.037.15-.076v4.33c0 .15 0 .225-.15.264-4.592 1.994-9.11 4.027-13.626 6.02-.376.19-.828.34-1.13.53l-.075.002z" fill="#6984D1"/><path d="M10.088 13.514c3.237-1.468 6.55-2.937 9.862-4.442.15-.076.15 0 .15.15v4.14c0 .114 0 .19-.15.227-3.237 1.467-6.55 2.936-9.787 4.402l-.076.037v-4.516z" fill="#D7DF20"/><path d="M10.088 13.514v4.516c-.527-.188-.98-.412-1.43-.602l-4.743-2.145C2.71 14.72 1.43 14.153.15 13.59l-.074-.04c.3-.225.677-.337.98-.488.75-.34 1.504-.678 2.182-.98.603-.262 1.205-.563 1.807-.827.904.414 1.73.79 2.56 1.167.827.376 1.655.753 2.483 1.092z" fill="#3F887F"/></g></svg>
